<svg version="1.1" xmlns="http://www.w3.org/2000/svg" viewBox="0 0 404.1418472882417 454" width="808.2836945764834" height="908">
  <!-- svg-source:excalidraw -->
  
  <defs>
    <style>
      @font-face {
        font-family: "Virgil";
        src: url("https://excalidraw.com/Virgil.woff2");
      }
      @font-face {
        font-family: "Cascadia";
        src: url("https://excalidraw.com/Cascadia.woff2");
      }
    </style>
  </defs>
  <g transform="translate(10 10) rotate(0 191 217)"><text x="0" y="347" font-family="Helvetica, Segoe UI Emoji" font-size="376.6131465517241px" fill="#000000" text-anchor="start" style="white-space: pre;" direction="ltr">@</text></g><g stroke-linecap="round" transform="translate(277.4356704536201 239.36519249966955) rotate(0.22204287082016708 57.405888228265724 14.792098641394688)"><path d="M-0.7 3.08 L112.84 -1.96 L114.46 25.88 L1.17 25.91" stroke="none" stroke-width="0" fill="#ec0009"></path><path d="M2.08 -2.22 C42.79 -1.5, 91.84 -0.12, 117.52 2.7 M1.29 -0.16 C45.06 1.32, 88.17 2.55, 113.41 1.41 M112.36 1.64 C111.52 12.24, 113.95 14.65, 117.26 30.06 M113.19 -1.49 C114.91 12.05, 115.29 21.36, 115.01 30.93 M116.34 29.32 C77.04 28.67, 42.05 29.17, 1.76 29.13 M114.03 28.2 C80.96 32.9, 49.57 31.18, -1.91 27.73 M-1.41 32.12 C-0.91 15.49, -0.14 10.75, 3.83 -2.81 M1.61 28.82 C0.11 18.86, 1.15 11.04, -1.85 -1.43" stroke="#ec0009" stroke-width="1" fill="none"></path></g><g stroke-linecap="round" transform="translate(278.2913553485272 281.24147943475646) rotate(0.22204287082016708 57.405888228265724 14.792098641394688)"><path d="M-1.52 3.42 L113.54 3.68 L117.35 29.9 L-1.08 25.93" stroke="none" stroke-width="0" fill="#ec0009"></path><path d="M2.82 0.18 C29.17 5.58, 55.15 3.26, 111.46 3.24 M0.24 0.84 C32.29 -0.3, 62 -2.89, 114.77 1.93 M117.51 0.42 C115 12.28, 116.67 18.49, 112.7 27.01 M114.59 -0.28 C115.43 8.98, 113.72 14.24, 113.78 31.56 M111.11 32.46 C75.3 29.51, 40.02 29.92, -1.32 26.49 M113.41 30.03 C82.84 33.24, 50.76 31.02, 0.37 28.4 M-2.85 28.89 C2.92 16.67, -2.12 7.33, -3.71 1.17 M-0.77 29.33 C0.35 22.81, -0.21 16.47, -0.76 -0.59" stroke="#ec0009" stroke-width="1" fill="none"></path></g><g stroke-linecap="round" transform="translate(279.2731770606068 324.99163674394447) rotate(0.22204287082016708 57.405888228265724 14.792098641394716)"><path d="M-2.65 -1.82 L112.54 3.17 L115.02 31.42 L0.66 28.27" stroke="none" stroke-width="0" fill="#ec0009"></path><path d="M-3.67 2.33 C31.39 -2.2, 66.34 0.73, 113.58 0.27 M-0.76 1.71 C29.22 2.52, 60.98 0.83, 114.27 -1.83 M112.05 1.9 C113.16 11.31, 111.39 26.85, 118.36 33.47 M114.03 1.59 C114.62 5.2, 114.04 13.8, 113.13 29.35 M112.78 30.13 C74.57 29.2, 39.14 26.68, -3.97 30.75 M116.75 28.84 C76.89 32.34, 41.81 32.31, -0.92 30.32 M0.46 30.28 C-3.8 26.82, -2.93 19.88, -1.46 -0.39 M-0.93 29.82 C0.55 22.69, -1.05 15.62, -1.36 -0.82" stroke="#ec0009" stroke-width="1" fill="none"></path></g></svg>