<svg version="1.1" xmlns="http://www.w3.org/2000/svg" viewBox="0 0 353.79164244166986 239.60757544961805" width="1061.3749273250096" height="718.8227263488542">
  <!-- svg-source:excalidraw -->
  
  <defs>
    <style class="style-fonts">
      @font-face {
        font-family: "Virgil";
        src: url("https://excalidraw.com/Virgil.woff2");
      }
      @font-face {
        font-family: "Cascadia";
        src: url("https://excalidraw.com/Cascadia.woff2");
      }
    </style>
    
  </defs>
  <g transform="translate(10 10) rotate(0 166.89582122083493 109.80378772480903)"><text x="0" y="0" font-family="Virgil, Segoe UI Emoji" font-size="175.68606035969444px" fill="#1e1e1e" text-anchor="start" style="white-space: pre;" direction="ltr" dominant-baseline="text-before-edge">SBt</text></g><g stroke-linecap="round" transform="translate(293.51428102676687 32.840619100582956) rotate(0 21.183384495201494 3.47019986264678)"><path d="M0.89 -0.62 L42.18 -0.56 L42.29 1.26 L43.66 5.39 L42.05 8.42 L0.04 8.74 L1.24 4.39 L0.4 0.15 L-0.18 -1.14" stroke="none" stroke-width="0" fill="#e03131"></path><path d="M1.74 0 M1.74 0 C15.49 1.28, 31.82 1.09, 40.63 0 M1.74 0 C11.46 -0.47, 21.72 -0.79, 40.63 0 M40.63 0 C42.42 0.2, 44.04 0.25, 42.37 1.74 M40.63 0 C41.88 -0.04, 44.05 0.93, 42.37 1.74 M42.37 1.74 C42.63 3.07, 42.31 4.77, 42.37 5.21 M42.37 1.74 C42.29 2.54, 42.43 3.11, 42.37 5.21 M42.37 5.21 C40.52 5.94, 42.6 7.58, 40.63 6.94 M42.37 5.21 C41.4 4.85, 41.59 4.81, 40.63 6.94 M40.63 6.94 C29.21 7.58, 21.57 7.88, 1.74 6.94 M40.63 6.94 C29.37 7.17, 19.71 6.72, 1.74 6.94 M1.74 6.94 C2.23 8.32, 1.4 5.36, 0 5.21 M1.74 6.94 C1.63 6.28, -0.5 5.88, 0 5.21 M0 5.21 C-0.05 3.96, 0.28 3.74, 0 1.74 M0 5.21 C0.13 3.97, 0.07 2.86, 0 1.74 M0 1.74 C-1.38 0.03, -0.31 -1.08, 1.74 0 M0 1.74 C-0.26 -0.48, -1.28 -1.52, 1.74 0" stroke="#e03131" stroke-width="1" fill="none"></path></g><g stroke-linecap="round" transform="translate(294.3651424234157 45.82306276045537) rotate(0 20.706602269104906 3.47019986264678)"><path d="M-0.04 0.6 L38.99 -0.35 L40.52 0.83 L43.34 6.2 L39.4 5.9 L1.4 5.93 L-0.85 4.04 L1.38 2.74 L2.36 -1.31" stroke="none" stroke-width="0" fill="#e03131"></path><path d="M1.74 0 M1.74 0 C14.93 1.27, 27.55 1.07, 39.68 0 M1.74 0 C15.66 -0.12, 30.22 0.19, 39.68 0 M39.68 0 C40.03 -1.47, 43.01 2.28, 41.41 1.74 M39.68 0 C42.11 1.76, 41.01 0.29, 41.41 1.74 M41.41 1.74 C41.39 2.96, 41.5 3.9, 41.41 5.21 M41.41 1.74 C41.35 2.59, 41.49 3.37, 41.41 5.21 M41.41 5.21 C39.94 4.95, 41 8.24, 39.68 6.94 M41.41 5.21 C41.33 8.37, 39.75 8.71, 39.68 6.94 M39.68 6.94 C27.19 8.44, 11.42 6.04, 1.74 6.94 M39.68 6.94 C24.33 7.43, 11.56 7.17, 1.74 6.94 M1.74 6.94 C-0.82 7.22, 1.6 7.75, 0 5.21 M1.74 6.94 C1.65 5.24, -1.32 4.62, 0 5.21 M0 5.21 C0.24 4.51, -0.3 3.44, 0 1.74 M0 5.21 C-0.15 4.15, 0.11 3.16, 0 1.74 M0 1.74 C-0.94 -1.26, 2.11 0.01, 1.74 0 M0 1.74 C0.33 2.69, -1.36 -1.23, 1.74 0" stroke="#e03131" stroke-width="1" fill="none"></path></g><g stroke-linecap="round" transform="translate(294.68131745745563 58.70182264090221) rotate(0 20.536442062450533 3.47019986264678)"><path d="M0.59 -1.05 L37.68 1.38 L42.93 2.59 L39.67 5.49 L40.94 8.32 L2.66 5.46 L-1.15 3.69 L-0.97 0.08 L3.48 1.23" stroke="none" stroke-width="0" fill="#e03131"></path><path d="M1.74 0 M1.74 0 C14.69 -0.55, 26.45 -1.79, 39.34 0 M1.74 0 C11.18 -0.8, 22.34 0.12, 39.34 0 M39.34 0 C40.78 1.83, 39.39 -0.49, 41.07 1.74 M39.34 0 C41.71 0.93, 42.94 1.68, 41.07 1.74 M41.07 1.74 C40.91 2.94, 41.12 3.53, 41.07 5.21 M41.07 1.74 C41.09 2.72, 41.11 3.7, 41.07 5.21 M41.07 5.21 C42.36 8.06, 40.52 5, 39.34 6.94 M41.07 5.21 C40.65 7.26, 40.2 5.87, 39.34 6.94 M39.34 6.94 C24.16 8.12, 8.05 8.4, 1.74 6.94 M39.34 6.94 C29.49 7.18, 19.2 7.38, 1.74 6.94 M1.74 6.94 C-1.03 8.05, -0.07 7.21, 0 5.21 M1.74 6.94 C1.44 8.88, -1.5 6.16, 0 5.21 M0 5.21 C-0.19 4.3, -0.33 3.86, 0 1.74 M0 5.21 C0.06 4.11, 0.07 2.91, 0 1.74 M0 1.74 C-0.68 -0.46, -0.01 -1.01, 1.74 0 M0 1.74 C-2.27 -1.21, 1.62 2.11, 1.74 0" stroke="#e03131" stroke-width="1" fill="none"></path></g></svg>