<svg data-v-6805eed4="" version="1.0" xmlns="http://www.w3.org/2000/svg" xmlns:xlink="http://www.w3.org/1999/xlink" width="100%" height="100%" viewBox="0 0 340.000000 250.000000" preserveAspectRatio="xMidYMid meet" color-interpolation-filters="sRGB" style="margin: auto;">   <g data-v-6805eed4="" fill="#000000" class="icon-text-wrapper icon-svg-group iconsvg" transform="translate(17,34.947349548339844)"><g class="iconsvg-imagesvg" transform="translate(268.20000076293945,0)"><g><rect fill="#000000" fill-opacity="0" stroke-width="2" x="0" y="0" width="37.79999999999998" height="61.21060983903873" class="image-rect"></rect> <svg x="0" y="0" width="37.79999999999998" height="61.21060983903873" filtersec="colorsb4735030455" class="image-svg-svg primary" style="overflow: visible;"><svg fill="#DC322F" role="img" viewBox="4.588997840881348 0 14.821002006530762 24" xmlns="http://www.w3.org/2000/svg"><path d="M4.589 24c4.537 0 13.81-1.516 14.821-3v-5.729c-.957 1.408-10.284 2.912-14.821 2.912V24zM4.589 16.365c4.537 0 13.81-1.516 14.821-3V7.636c-.957 1.408-10.284 2.912-14.821 2.912v5.817zM4.589 8.729c4.537 0 13.81-1.516 14.821-3V0C18.453 1.408 9.126 2.912 4.589 2.912v5.817z"></path></svg></svg> <!----></g></g> <g transform="translate(0,47.10530471801758)"><g data-gra="path-name" fill-rule="" class="tp-name iconsvg-namesvg"><g transform="scale(3.040000000000002)"><g><path d="M28.08-8.71L28.08-8.71Q28.08-4.16 24.7-1.59 21.32 0.98 14.82 0.98L14.82 0.98Q12.16 0.98 9.98 0.58 7.8 0.2 6.21-0.55 4.62-1.3 3.74-2.37 2.86-3.45 2.86-4.75L2.86-4.75Q2.86-5.98 3.41-6.89 3.97-7.8 4.88-8.38L4.88-8.38Q6.7-7.21 9.07-6.31 11.44-5.4 14.56-5.4L14.56-5.4Q17.23-5.4 18.59-6.27 19.96-7.15 19.96-8.71L19.96-8.71Q19.96-11.38 16.05-12.22L16.05-12.22 12.42-13.07Q7.61-14.17 5.3-16.38 2.99-18.59 2.99-22.3L2.99-22.3Q2.99-26.52 6.37-29.15 9.75-31.79 15.86-31.79L15.86-31.79Q18.2-31.79 20.18-31.43 22.16-31.07 23.63-30.39 25.09-29.71 25.9-28.76 26.71-27.82 26.71-26.59L26.71-26.59Q26.71-25.41 26.2-24.54 25.68-23.66 24.96-23.14L24.96-23.14Q24.38-23.53 23.43-23.92 22.49-24.31 21.35-24.64 20.21-24.96 18.95-25.19 17.68-25.41 16.45-25.41L16.45-25.41Q13.91-25.41 12.48-24.6 11.05-23.79 11.05-22.3L11.05-22.3Q11.05-21.19 11.86-20.48 12.68-19.76 14.69-19.3L14.69-19.3 17.88-18.53Q23.27-17.29 25.68-14.92 28.08-12.54 28.08-8.71ZM50.18-31.72L50.18-31.72Q53.3-31.72 56-30.71 58.7-29.71 60.71-27.66 62.73-25.61 63.86-22.59 65-19.57 65-15.47L65-15.47Q65-11.38 63.83-8.32 62.66-5.27 60.52-3.19 58.37-1.1 55.35-0.07 52.33 0.98 48.62 0.98L48.62 0.98Q44.85 0.98 42.05 0.07 39.26-0.84 37.44-2.08L37.44-2.08Q36.08-2.99 35.42-4.06 34.77-5.13 34.77-6.63L34.77-6.63 34.77-42.25Q35.3-42.45 36.3-42.61 37.31-42.77 38.55-42.77L38.55-42.77Q40.82-42.77 41.92-41.93 43.03-41.08 43.03-38.94L43.03-38.94 43.03-30.03Q44.4-30.75 46.18-31.23 47.97-31.72 50.18-31.72ZM48.75-25.22L48.75-25.22Q47-25.22 45.53-24.64 44.07-24.05 42.97-23.34L42.97-23.34 42.97-7.08Q43.81-6.57 45.24-6.08 46.67-5.59 48.55-5.59L48.55-5.59Q52.2-5.59 54.41-8.03 56.62-10.46 56.62-15.47L56.62-15.47Q56.62-20.54 54.44-22.88 52.26-25.22 48.75-25.22ZM79.95-9.55L79.95-9.55Q79.95-7.48 81.22-6.57 82.49-5.66 84.76-5.66L84.76-5.66Q85.87-5.66 87-5.92 88.14-6.17 89.05-6.57L89.05-6.57Q89.57-6.04 89.93-5.3 90.29-4.55 90.29-3.58L90.29-3.58Q90.29-1.63 88.53-0.36 86.78 0.91 82.88 0.91L82.88 0.91Q77.74 0.91 74.78-1.4 71.83-3.71 71.83-9.04L71.83-9.04 71.83-38.87Q72.35-39 73.35-39.2 74.36-39.39 75.53-39.39L75.53-39.39Q77.81-39.39 78.88-38.55 79.95-37.7 79.95-35.55L79.95-35.55 79.95-30.16 89.51-30.16Q89.83-29.64 90.09-28.8 90.35-27.95 90.35-26.98L90.35-26.98Q90.35-25.29 89.57-24.51 88.79-23.73 87.49-23.73L87.49-23.73 79.95-23.73 79.95-9.55Z" transform="translate(-2.8600001335144043, 42.77000045776367)"></path></g> <!----> <!----> <!----> <!----> <!----> <!----> <!----></g></g> <!----></g></g><defs v-gra="od"></defs></svg>