<svg version="1.1" xmlns="http://www.w3.org/2000/svg" viewBox="0 0 40.444976806640625 40.39561831451374" width="32.444976806640625" height="35.39561831451374">
  <!-- svg-source:excalidraw -->
  
  <defs>
    <style class="style-fonts">
      @font-face {
        font-family: "Virgil";
        src: url("https://excalidraw.com/Virgil.woff2");
      }
      @font-face {
        font-family: "Cascadia";
        src: url("https://excalidraw.com/Cascadia.woff2");
      }
    </style>
    
  </defs>
  <g transform="translate(10 17.19676718833594) rotate(0 6.2224884033203125 4.0994255630889)"><text x="0" y="0" font-family="Virgil, Segoe UI Emoji" font-size="6.559080900942242px" fill="#1e1e1e" text-anchor="start" style="white-space: pre;" direction="ltr" dominant-baseline="text-before-edge">SBt</text></g><g stroke-linecap="round" transform="translate(21.548366158607678 10) rotate(0 0.4483053240164736 0.06431109282375758)"><path d="" stroke="#e03131" stroke-width="0.5" fill="none"></path><path d="M0.03 0 M0.03 0 C0.32 0.07, 0.69 0.04, 0.86 0 M0.03 0 C0.29 0.01, 0.61 0.04, 0.86 0 M0.86 0 C1.08 -0.28, 1.28 -0.22, 0.9 0.03 M0.86 0 C0.87 0.87, -0.45 0.01, 0.9 0.03 M0.9 0.03 C0.9 0.05, 0.9 0.07, 0.9 0.1 M0.9 0.03 C0.9 0.05, 0.89 0.08, 0.9 0.1 M0.9 0.1 C1.76 1.86, -0.17 1.69, 0.86 0.13 M0.9 0.1 C2.53 -0.83, -0.54 0.45, 0.86 0.13 M0.86 0.13 C0.75 0.17, 0.51 0.07, 0.03 0.13 M0.86 0.13 C0.54 0.12, 0.17 0.12, 0.03 0.13 M0.03 0.13 C1.14 1.99, 0.99 -0.34, 0 0.1 M0.03 0.13 C-0.36 1, -0.95 -0.16, 0 0.1 M0 0.1 C0 0.08, 0 0.07, 0 0.03 M0 0.1 C0 0.08, 0 0.07, 0 0.03 M0 0.03 C-1.1 1.94, -0.64 1.43, 0.03 0 M0 0.03 C1.69 -0.95, 1.79 0.09, 0.03 0" stroke="#e03131" stroke-width="1" fill="none"></path></g><g stroke-linecap="round" transform="translate(21.57241662096402 10) rotate(0 0.4362800928383024 0.06051132179024421)"><path d="" stroke="#e03131" stroke-width="0.5" fill="none"></path><path d="M0.03 0 M0.03 0 C0.27 0.03, 0.52 0.07, 0.84 0 M0.03 0 C0.26 0.04, 0.45 -0.01, 0.84 0 M0.84 0 C1.24 -0.23, 0.86 0.77, 0.87 0.03 M0.84 0 C-0.48 -0.01, 0.29 1.34, 0.87 0.03 M0.87 0.03 C0.87 0.04, 0.88 0.05, 0.87 0.09 M0.87 0.03 C0.87 0.05, 0.87 0.08, 0.87 0.09 M0.87 0.09 C-0.18 1.67, 2.28 -0.7, 0.84 0.12 M0.87 0.09 C-0.55 0.44, -0.66 1.8, 0.84 0.12 M0.84 0.12 C0.66 0.07, 0.48 0.2, 0.03 0.12 M0.84 0.12 C0.49 0.1, 0.22 0.16, 0.03 0.12 M0.03 0.12 C1 -0.34, -0.32 0.87, 0 0.09 M0.03 0.12 C-0.94 -0.16, -1.04 0.37, 0 0.09 M0 0.09 C0 0.08, 0 0.05, 0 0.03 M0 0.09 C0 0.07, 0 0.06, 0 0.03 M0 0.03 C-0.66 1.44, 1.48 -0.84, 0.03 0 M0 0.03 C1.78 0.1, -0.06 -0.95, 0.03 0" stroke="#e03131" stroke-width="1" fill="none"></path></g><g stroke-linecap="round" transform="translate(21.502988860710843 10) rotate(0 0.4709939729648909 0.06579873903028499)"><path d="" stroke="#e03131" stroke-width="0.5" fill="none"></path><path d="M0.03 0 M0.03 0 C0.4 0.08, 0.66 -0.06, 0.91 0 M0.03 0 C0.32 -0.01, 0.61 -0.01, 0.91 0 M0.91 0 C0.92 0.76, -0.23 0.01, 0.94 0.03 M0.91 0 C0.35 1.33, -0.61 -0.1, 0.94 0.03 M0.94 0.03 C0.95 0.05, 0.95 0.08, 0.94 0.1 M0.94 0.03 C0.94 0.05, 0.94 0.07, 0.94 0.1 M0.94 0.1 C2.36 -0.7, -0.31 0.41, 0.91 0.13 M0.94 0.1 C-0.58 1.8, 0.23 2.27, 0.91 0.13 M0.91 0.13 C0.69 0.21, 0.39 0.14, 0.03 0.13 M0.91 0.13 C0.7 0.17, 0.47 0.12, 0.03 0.13 M0.03 0.13 C-0.31 0.89, -0.82 -0.12, 0 0.1 M0.03 0.13 C-1.02 0.39, 0.03 1.25, 0 0.1 M0 0.1 C0 0.07, 0 0.06, 0 0.03 M0 0.1 C0 0.08, 0 0.06, 0 0.03 M0 0.03 C1.47 -0.83, 1.56 0.08, 0.03 0 M0 0.03 C-0.07 -0.94, -1.82 1.29, 0.03 0" stroke="#e03131" stroke-width="1" fill="none"></path></g></svg>